#!OML:ASF F:\VICON\USERDATA\INSTALL\rory3\rory3.ASF
:FULLY-SPECIFIED
:DEGREES
98
root 9.35944 17.774 -21.4098 -187.079 -6.08477 179.199
lowerback 12.8811 -1.38007 -3.92396
upperback 1.92505 -2.50085 1.78407
thorax -4.94625 -1.24742 4.52563
lowerneck -20.0325 -2.9004 -10.0881
upperneck 33.4236 -0.0213564 4.5947
head 15.0815 0.102548 3.88369
rclavicle 2.17918e-014 5.96354e-015
rhumerus -48.8013 -18.7433 -70.349
rradius 28.3436
rwrist 5.27517
rhand -16.0096 5.78692
rfingers 7.12502
rthumb 10.1908 -23.9463
lclavicle 2.17918e-014 5.96354e-015
lhumerus -26.2345 1.3969 87.134
lradius 36.442
lwrist -2.6076
lhand -18.1064 26.3969
lfingers 7.12502
lthumb 8.16767 56.2191
rfemur -14.7261 0.490044 17.4103
rtibia 26.1937
rfoot 1.64573 -9.40217
rtoes 11.8312
lfemur 4.37719 -6.1533 -20.2173
ltibia 44.9313
lfoot -2.34296 -8.38687
ltoes -10.094
99
root 9.32513 17.7565 -21.3275 -187.09 -6.14303 179.013
lowerback 12.7624 -1.4032 -4.1566
upperback 1.8793 -2.55502 1.7173
thorax -4.91621 -1.26707 4.59105
lowerneck -19.9556 -2.94344 -10.2206
upperneck 33.5448 -0.130905 4.9084
head 15.1309 0.0905766 4.02859
rclavicle -2.38293e-014 -1.47101e-014
rhumerus -49.1677 -18.895 -70.148
rradius 27.9163
rwrist 5.81252
rhand -15.7863 5.8826
rfingers 7.12502
rthumb 10.4063 -23.8399
lclavicle -2.38293e-014 -1.47101e-014
lhumerus -26.1441 1.36079 87.181
lradius 36.3658
lwrist -3.01526
lhand -17.8188 26.162
lfingers 7.12502
lthumb 8.44518 55.9732
rfemur -15.182 0.549342 17.0165
rtibia 26.5239
rfoot 1.75439 -9.4891
rtoes 12.3159
lfemur 5.5361 -6.5044 -20.5448
ltibia 43.1825
lfoot -1.57819 -8.58843
ltoes -10.5785
100
root 9.28654 17.7418 -21.2384 -187.085 -6.20255 178.876
lowerback 12.8104 -1.46281 -4.31345
upperback 1.75412 -2.64999 1.6856
thorax -5.05911 -1.29961 4.66774
lowerneck -20.1256 -2.97636 -10.3003
upperneck 33.9079 -0.123668 5.05016
head 15.3425 0.11086 4.1313
rclavicle 7.05686e-015 1.03368e-014
rhumerus -49.5729 -18.9554 -69.8573
rradius 27.5393
rwrist 6.48361
rhand -15.3613 5.9515
rfingers 7.12502
rthumb 10.8163 -23.75
lclavicle 7.05686e-015 1.03368e-014
lhumerus -26.1796 1.4394 87.2672
lradius 36.3083
lwrist -3.23218
lhand -17.7659 26.0874
lfingers 7.12502
lthumb 8.49629 55.8965
rfemur -15.6754 0.526186 16.6659
rtibia 27.1003
rfoot 1.66146 -9.39596
rtoes 12.6571
lfemur 6.74348 -6.87677 -20.8338
ltibia 41.1659
lfoot -1.28532 -8.84383
ltoes -11.9485
101
root 9.24732 17.7262 -21.1418 -187.053 -6.20194 178.799
lowerback 12.7101 -1.51021 -4.3864
upperback 1.74511 -2.71821 1.64063
thorax -5.0045 -1.33244 4.66738
lowerneck -20.1644 -2.87014 -10.0308
upperneck 33.857 0.0487413 4.71192
head 15.3085 0.16741 3.9667
rclavicle -7.19352e-015 -1.47101e-014
rhumerus -49.6907 -19.0348 -69.7706
rradius 27.1582
rwrist 7.00564
rhand -14.9683 5.77985
rfingers 7.12502
rthumb 11.1954 -23.9015
lclavicle -7.19352e-015 -1.47101e-014
lhumerus -25.9993 1.34147 87.3044
lradius 36.3198
lwrist -3.29727
lhand -17.4805 26.196
lfingers 7.12502
lthumb 8.77164 55.9937
rfemur -16.0837 0.443232 16.4358
rtibia 27.5577
rfoot 1.63721 -9.08532
rtoes 11.568
lfemur 7.91178 -7.25578 -21.0505
ltibia 39.0447
lfoot -1.78274 -9.06838
ltoes -13.4016
102
root 9.21475 17.7043 -21.0469 -187.145 -6.08876 178.745
lowerback 12.5617 -1.50377 -4.54784
upperback 1.85244 -2.73136 1.61897
thorax -4.80133 -1.34782 4.7271
lowerneck -20.0502 -2.76635 -9.82886
upperneck 33.5874 0.14613 4.49344
head 15.1432 0.197243 3.83641
rclavicle -1.12189e-014 6.36111e-015
rhumerus -49.6431 -19.2755 -69.6222
rradius 26.617
rwrist 7.7091
rhand -14.5766 5.99988
rfingers 7.12502
rthumb 11.5731 -23.6606
lclavicle -1.12189e-014 6.36111e-015
lhumerus -25.7418 1.21895 87.3313
lradius 36.417
lwrist -3.33096
lhand -17.3816 26.1202
lfingers 7.12502
lthumb 8.86707 55.9139
rfemur -16.4376 0.467021 16.3327
rtibia 27.9424
rfoot 1.86786 -8.9103
rtoes 10.0202
lfemur 9.21512 -7.50904 -21.2234
ltibia 36.9
lfoot -4.48475 -9.43041
ltoes -20.5578
103
root 9.17925 17.6503 -20.9421 -187.136 -6.04307 178.577
lowerback 12.5694 -1.51667 -4.8028
upperback 1.79582 -2.7805 1.58293
thorax -4.84956 -1.36269 4.84328
lowerneck -19.9027 -2.71981 -9.91798
upperneck 33.559 0.155735 4.71679
head 15.0928 0.225834 3.9459
rclavicle 6.1002e-015 1.98785e-015
rhumerus -49.8324 -19.6037 -69.2569
rradius 26.1682
rwrist 8.78611
rhand -14.2641 6.23186
rfingers 7.12502
rthumb 11.8745 -23.4114
lclavicle 6.1002e-015 1.98785e-015
lhumerus -25.7238 1.27034 87.3813
lradius 36.47
lwrist -3.51533
lhand -17.7814 25.9557
lfingers 7.12502
lthumb 8.48135 55.7654
rfemur -17.27 1.07781 15.8438
rtibia 28.1234
rfoot 2.41787 -9.56127
rtoes 12.3907
lfemur 10.2578 -7.82782 -21.5761
ltibia 34.913
lfoot -6.47086 -9.44435
ltoes -22.488
104
root 9.13521 17.6236 -20.8324 -186.943 -6.14853 178.331
lowerback 12.5237 -1.61251 -5.06276
upperback 1.672 -2.93345 1.53317
thorax -4.92676 -1.42322 4.96298
lowerneck -19.8443 -2.66428 -9.95236
upperneck 33.5985 0.23291 4.78296
head 15.0898 0.266689 3.99602
rclavicle -1.56046e-014 1.59028e-014
rhumerus -50.0098 -19.7636 -68.9627
rradius 25.8804
rwrist 9.7178
rhand -13.8958 6.12416
rfingers 7.12502
rthumb 12.2296 -23.4983
lclavicle -1.56046e-014 1.59028e-014
lhumerus -25.7078 1.33901 87.4521
lradius 36.4895
lwrist -3.75648
lhand -17.8129 26.3195
lfingers 7.12502
lthumb 8.4509 56.1304
rfemur -17.922 1.15238 15.2856
rtibia 28.0759
rfoot 2.87327 -9.83
rtoes 13.3359
lfemur 10.9393 -8.19331 -22.0248
ltibia 33.048
lfoot -7.84387 -9.06306
ltoes -22.4899
105
root 9.09404 17.6043 -20.7244 -186.886 -6.16443 178.178
lowerback 12.4677 -1.64579 -5.21373
upperback 1.69915 -2.9992 1.45687
thorax -4.85574 -1.45681 4.97365
lowerneck -19.9172 -2.63747 -9.83866
upperneck 33.5517 0.250987 4.69236
head 15.0818 0.270578 3.93785
rclavicle 7.21837e-015 1.03368e-014
rhumerus -49.958 -20.0384 -68.7933
rradius 25.5089
rwrist 10.3214
rhand -13.3489 6.07592
rfingers 7.12502
rthumb 12.7569 -23.5144
lclavicle 7.21837e-015 1.03368e-014
lhumerus -25.4087 1.21964 87.4518
lradius 36.3852
lwrist -3.98118
lhand -17.6134 26.4953
lfingers 7.12502
lthumb 8.64343 56.2983
rfemur -18.1564 1.19383 14.9066
rtibia 27.6565
rfoot 3.48777 -9.7949
rtoes 14.0023
lfemur 11.6184 -8.36154 -22.3086
ltibia 31.4345
lfoot -9.18664 -8.86715
ltoes -24.3568
106
root 9.05294 17.5785 -20.6139 -186.858 -6.11069 177.978
lowerback 12.4195 -1.66037 -5.43312
upperback 1.75669 -3.05173 1.38207
thorax -4.75483 -1.4859 5.022
lowerneck -20.0926 -2.59645 -9.65106
upperneck 33.5644 0.316778 4.49322
head 15.1214 0.287016 3.83394
rclavicle -3.19298e-015 -1.19271e-015
rhumerus -49.8379 -20.4222 -68.5447
rradius 25.1059
rwrist 11.028
rhand -12.9947 6.13773
rfingers 7.12502
rthumb 13.0983 -23.4309
lclavicle -3.19298e-015 -1.19271e-015
lhumerus -25.0746 1.17889 87.4616
lradius 36.2837
lwrist -3.99259
lhand -17.6472 26.2634
lfingers 7.12502
lthumb 8.61084 56.0678
rfemur -18.5853 1.33988 14.5056
rtibia 27.3521
rfoot 4.41992 -9.55643
rtoes 12.8676
lfemur 12.2422 -8.33058 -22.6079
ltibia 29.9003
lfoot -10.2683 -9.03472
ltoes -24.148
107
root 9.01288 17.5454 -20.4994 -186.767 -6.05118 177.609
lowerback 12.4793 -1.64594 -5.85171
upperback 1.68819 -3.09288 1.30393
thorax -4.83761 -1.49229 5.18807
lowerneck -20.0726 -2.55169 -9.58907
upperneck 33.5679 0.424223 4.32243
head 15.1101 0.316735 3.76979
rclavicle 7.10655e-014 -7.55382e-015
rhumerus -49.9056 -20.5417 -68.3243
rradius 24.8868
rwrist 11.4725
rhand -12.889 6.27696
rfingers 7.12502
rthumb 13.2002 -23.2851
lclavicle 7.10655e-014 -7.55382e-015
lhumerus -25.0055 1.20386 87.5599
lradius 36.316
lwrist -3.83122
lhand -17.7784 26.2506
lfingers 7.12502
lthumb 8.48416 56.0602
rfemur -19.351 1.37279 13.9997
rtibia 27.015
rfoot 5.93691 -9.04531
rtoes 7.98514
lfemur 12.6446 -8.11176 -23.0666
ltibia 28.5157
lfoot -11.1502 -9.18958
ltoes -22.4466
108
root 8.97619 17.5235 -20.383 -186.704 -5.97215 177.293
lowerback 12.6069 -1.61541 -6.25095
upperback 1.63226 -3.11827 1.21716
thorax -4.94806 -1.49105 5.33504
lowerneck -20.0365 -2.5092 -9.5416
upperneck 33.5613 0.470645 4.3104
head 15.0937 0.341485 3.76393
rclavicle -4.36581e-014 -5.1684e-015
rhumerus -49.9327 -20.6191 -68.261
rradius 24.7585
rwrist 11.713
rhand -12.8794 6.30462
rfingers 7.12502
rthumb 13.2095 -23.2569
lclavicle -4.36581e-014 -5.1684e-015
lhumerus -24.9398 1.33083 87.5825
lradius 36.2869
lwrist -3.94177
lhand -17.8542 26.4907
lfingers 7.12502
lthumb 8.41106 56.3032
rfemur -19.5982 1.82529 13.379
rtibia 26.6333
rfoot 6.22595 -9.55946
rtoes 11.6379
lfemur 12.9242 -7.72179 -23.445
ltibia 27.3253
lfoot -12.0384 -8.99212
ltoes -21.8306
109
root 8.93941 17.5006 -20.2635 -186.573 -5.99465 176.88
lowerback 12.6418 -1.61254 -6.73333
upperback 1.66029 -3.19316 1.08268
thorax -4.90963 -1.52384 5.47767
lowerneck -20.216 -2.48975 -9.54383
upperneck 33.5412 0.453893 4.41642
head 15.1244 0.340219 3.80592
rclavicle 3.03395e-014 -7.95139e-016
rhumerus -49.7218 -20.7858 -68.3233
rradius 24.6419
rwrist 11.8625
rhand -12.6355 6.11744
rfingers 7.12502
rthumb 13.4445 -23.4287
lclavicle 3.03395e-014 -7.95139e-016
lhumerus -24.7142 1.4872 87.564
lradius 36.2174
lwrist -4.15315
lhand -17.9208 26.5307
lfingers 7.12502
lthumb 8.34681 56.3457
rfemur -19.9904 1.82758 12.721
rtibia 26.2287
rfoot 6.85136 -9.45037
rtoes 11.5788
lfemur 12.9914 -7.2745 -23.9179
ltibia 26.3581
lfoot -12.8152 -8.67092
ltoes -21.3487
110
root 8.90233 17.479 -20.1422 -186.474 -6.09385 176.44
lowerback 12.7282 -1.63106 -7.26968
upperback 1.65174 -3.3063 0.983121
thorax -4.92681 -1.57032 5.69779
lowerneck -20.2647 -2.47361 -9.55647
upperneck 33.476 0.499143 4.32972
head 15.1017 0.339835 3.77505
rclavicle 1.84994e-014 -1.43125e-014
rhumerus -49.558 -21.03 -68.1603
rradius 24.4044
rwrist 12.167
rhand -12.6157 6.05515
rfingers 7.12502
rthumb 13.4636 -23.4897
lclavicle 1.84994e-014 -1.43125e-014
lhumerus -24.5403 1.58587 87.6185
lradius 36.0966
lwrist -4.06415
lhand -17.8387 26.4275
lfingers 7.12502
lthumb 8.42604 56.2394
rfemur -20.4201 1.7899 12.0277
rtibia 26.0042
rfoot 7.53023 -9.24638
rtoes 10.8972
lfemur 13.0041 -6.77861 -24.4246
ltibia 25.5227
lfoot -13.4541 -8.26857
ltoes -23.0022
111
root 8.8651 17.466 -20.0204 -186.437 -6.06144 176.116
lowerback 12.9516 -1.58945 -7.61687
upperback 1.53681 -3.32477 0.864066
thorax -5.15805 -1.55738 5.78736
lowerneck -20.1545 -2.47087 -9.45605
upperneck 33.5324 0.500059 4.26174
head 15.1033 0.349515 3.73176
rclavicle -1.65364e-014 -1.59028e-014
rhumerus -49.6998 -21.4194 -67.8185
rradius 24.1689
rwrist 12.3637
rhand -12.8195 6.28116
rfingers 7.12502
rthumb 13.2671 -23.2766
lclavicle -1.65364e-014 -1.59028e-014
lhumerus -24.5602 1.52538 87.6401
lradius 35.9356
lwrist -3.86595
lhand -17.9958 26.2162
lfingers 7.12502
lthumb 8.27443 56.0341
rfemur -20.6858 1.93795 11.4723
rtibia 25.7586
rfoot 8.10523 -9.15557
rtoes 12.2133
lfemur 12.9851 -6.22709 -24.8346
ltibia 24.8396
lfoot -13.8454 -7.93917
ltoes -22.3843
112
root 8.82893 17.4626 -19.8984 -186.358 -5.95574 175.704
lowerback 13.1168 -1.5207 -8.06586
upperback 1.47379 -3.32523 0.702189
thorax -5.30207 -1.541 5.88056
lowerneck -20.1223 -2.45028 -9.47056
upperneck 33.5427 0.444717 4.50301
head 15.1019 0.359763 3.82721
rclavicle -8.38623e-015 1.74931e-014
rhumerus -49.7337 -22.0306 -67.4862
rradius 23.9495
rwrist 12.6737
rhand -12.9497 6.20409
rfingers 7.12502
rthumb 13.1417 -23.3618
lclavicle -8.38623e-015 1.74931e-014
lhumerus -24.6224 1.65389 87.5778
lradius 35.9357
lwrist -3.94929
lhand -18.1267 26.4399
lfingers 7.12502
lthumb 8.14804 56.2628
rfemur -20.9095 2.04093 10.8747
rtibia 25.4799
rfoot 8.39555 -8.98691
rtoes 13.8771
lfemur 12.8563 -5.62129 -25.313
ltibia 24.2725
lfoot -13.9943 -7.76606
ltoes -20.0629
